# xmcd
#
# Track frame offsets: 
#        150
#        2196
#        36859
#        63616
#        88810
#        107112
#        138312
#        156444
#        188236
#        205288
#        227665
#        247867
#
# Disc length: 3633 seconds
#
# Revision: 0
# Processed by: cddbd v1.5.2PL0 Copyright (c) Steve Scherf et al.
# Submitted via: ExactAudioCopyFreeDBPlugin 1.0
#
DISCID=a40e2f0c
DTITLE=Soul Vaccination - What Is Hip?
DYEAR=2012
DGENRE=
TTITLE0=J.D.'s Intro
TTITLE1=What Is Hip?
TTITLE2=Don't Change Horses (In The Middle Of A Stream)
TTITLE3=You Got To Funkifize
TTITLE4=Only So Much Oil In The Ground
TTITLE5=A Real Mother For Ya
TTITLE6=Funkin' For Jamaica (NY)
TTITLE7=I Wish
TTITLE8=So Very Hard To Go
TTITLE9=Once You Get Started
TTITLE10=Thank You (Falettin Me Be Mice Elf Again)
TTITLE11=Soul Vaccination
EXTD=
EXTT0=
EXTT1=
EXTT2=
EXTT3=
EXTT4=
EXTT5=
EXTT6=
EXTT7=
EXTT8=
EXTT9=
EXTT10=
EXTT11=
PLAYORDER=
